<?xml version="1.0" encoding="UTF-8"?>
<!DOCTYPE svg PUBLIC "-//W3C//DTD SVG 1.1//EN" "http://www.w3.org/Graphics/SVG/1.1/DTD/svg11.dtd">
<svg xmlns="http://www.w3.org/2000/svg" version="1.1" width="2000px" height="2000px" style="shape-rendering:geometricPrecision; text-rendering:geometricPrecision; image-rendering:optimizeQuality; fill-rule:evenodd; clip-rule:evenodd" xmlns:xlink="http://www.w3.org/1999/xlink">
<g><path style="opacity:0.999" fill="#e31236" d="M -0.5,1003.5 C -0.5,1000.5 -0.5,997.5 -0.5,994.5C 165.888,708.732 332.554,423.066 499.5,137.5C 504.897,134.39 509.73,135.057 514,139.5C 678.415,419.331 843.081,698.998 1008,978.5C 1011.91,985.158 1015.41,991.992 1018.5,999C 1017.18,1003.34 1015.35,1007.51 1013,1011.5C 848.167,1294.33 683.333,1577.17 518.5,1860C 512.93,1863.66 507.764,1863.16 503,1858.5C 335.644,1573.11 167.811,1288.11 -0.5,1003.5 Z"/></g>
<g><path style="opacity:0.998" fill="#e31236" d="M 740.5,135.5 C 829.834,135.333 919.167,135.5 1008.5,136C 1009.5,136.833 1010.5,137.667 1011.5,138.5C 1154.47,385.963 1297.63,633.296 1441,880.5C 1443.07,883.96 1444.57,887.626 1445.5,891.5C 1445.35,894.63 1444.02,897.13 1441.5,899C 1352.58,900.661 1263.58,900.995 1174.5,900C 1172.15,899.654 1170.32,898.487 1169,896.5C 1025.92,648.67 882.586,401.003 739,153.5C 735.428,148.832 734.761,143.832 737,138.5C 738.145,137.364 739.312,136.364 740.5,135.5 Z"/></g>
<g><path style="opacity:0.998" fill="#e31236" d="M 1999.5,993.5 C 1999.5,997.167 1999.5,1000.83 1999.5,1004.5C 1834.11,1288.94 1668.94,1573.61 1504,1858.5C 1502.83,1859.67 1501.67,1860.83 1500.5,1862C 1410.83,1862.67 1321.17,1862.67 1231.5,1862C 1228.59,1860.19 1226.92,1857.52 1226.5,1854C 1228.66,1847.84 1231.5,1842.01 1235,1836.5C 1396.83,1557.33 1558.67,1278.17 1720.5,999C 1555.62,715.412 1391.12,431.579 1227,147.5C 1225.7,142.883 1226.87,139.05 1230.5,136C 1320.5,135.333 1410.5,135.333 1500.5,136C 1501.67,137.167 1502.83,138.333 1504,139.5C 1668.94,424.393 1834.11,709.06 1999.5,993.5 Z"/></g>
<g><path style="opacity:0.998" fill="#e31236" d="M 1168.5,1109.5 C 1255.5,1109.33 1342.5,1109.5 1429.5,1110C 1434.5,1111 1437.5,1114 1438.5,1119C 1437.21,1123.33 1435.38,1127.49 1433,1131.5C 1292.3,1374.04 1151.8,1616.7 1011.5,1859.5C 1010.5,1860.33 1009.5,1861.17 1008.5,1862C 918.419,1862.99 828.419,1862.66 738.5,1861C 734.558,1855.51 734.724,1850.01 739,1844.5C 879.733,1602.09 1020.07,1359.43 1160,1116.5C 1161.87,1112.78 1164.7,1110.45 1168.5,1109.5 Z"/></g>
</svg>
