<?xml version="1.0" encoding="UTF-8"?>
<!DOCTYPE svg PUBLIC "-//W3C//DTD SVG 1.1//EN" "http://www.w3.org/Graphics/SVG/1.1/DTD/svg11.dtd">
<svg xmlns="http://www.w3.org/2000/svg" version="1.1" width="360px" height="360px" style="shape-rendering:geometricPrecision; text-rendering:geometricPrecision; image-rendering:optimizeQuality; fill-rule:evenodd; clip-rule:evenodd" xmlns:xlink="http://www.w3.org/1999/xlink">
<g><path style="opacity:1" fill="#f5f5f5" d="M -0.5,-0.5 C 49.5,-0.5 99.5,-0.5 149.5,-0.5C 149.5,4.5 149.5,9.5 149.5,14.5C 144.5,14.5 139.5,14.5 134.5,14.5C 134.5,18.1667 134.5,21.8333 134.5,25.5C 129.677,26.2179 125.01,27.5512 120.5,29.5C 119.506,24.544 119.173,19.544 119.5,14.5C 114.5,14.5 109.5,14.5 104.5,14.5C 104.5,19.5 104.5,24.5 104.5,29.5C 99.5,29.5 94.5,29.5 89.5,29.5C 89.5,34.5 89.5,39.5 89.5,44.5C 84.5,44.5 79.5,44.5 74.5,44.5C 74.8256,48.8839 74.4922,53.2172 73.5,57.5C 69.0782,59.3591 64.4115,60.0257 59.5,59.5C 59.7719,63.9017 59.4386,68.2351 58.5,72.5C 57.9747,73.1924 57.3081,73.6924 56.5,74C 52.5138,74.4988 48.5138,74.6655 44.5,74.5C 44.5,79.5 44.5,84.5 44.5,89.5C 39.5,89.5 34.5,89.5 29.5,89.5C 29.5,94.5 29.5,99.5 29.5,104.5C 24.5,104.5 19.5,104.5 14.5,104.5C 14.5,109.5 14.5,114.5 14.5,119.5C 19.5111,119.334 24.5111,119.501 29.5,120C 27.1366,124.59 25.47,129.423 24.5,134.5C 21.1667,134.5 17.8333,134.5 14.5,134.5C 14.5,139.5 14.5,144.5 14.5,149.5C 9.5,149.5 4.5,149.5 -0.5,149.5C -0.5,99.5 -0.5,49.5 -0.5,-0.5 Z"/></g>
<g><path style="opacity:1" fill="#fbfbfb" d="M 149.5,-0.5 C 219.5,-0.5 289.5,-0.5 359.5,-0.5C 359.5,119.5 359.5,239.5 359.5,359.5C 239.5,359.5 119.5,359.5 -0.5,359.5C -0.5,289.5 -0.5,219.5 -0.5,149.5C 4.5,149.5 9.5,149.5 14.5,149.5C 14.5,144.5 14.5,139.5 14.5,134.5C 17.8333,134.5 21.1667,134.5 24.5,134.5C 25.47,129.423 27.1366,124.59 29.5,120C 24.5111,119.501 19.5111,119.334 14.5,119.5C 14.5,114.5 14.5,109.5 14.5,104.5C 19.5,104.5 24.5,104.5 29.5,104.5C 29.5,99.5 29.5,94.5 29.5,89.5C 34.5,89.5 39.5,89.5 44.5,89.5C 44.5,84.5 44.5,79.5 44.5,74.5C 48.5138,74.6655 52.5138,74.4988 56.5,74C 57.3081,73.6924 57.9747,73.1924 58.5,72.5C 59.4386,68.2351 59.7719,63.9017 59.5,59.5C 64.4115,60.0257 69.0782,59.3591 73.5,57.5C 74.4922,53.2172 74.8256,48.8839 74.5,44.5C 79.5,44.5 84.5,44.5 89.5,44.5C 89.5,39.5 89.5,34.5 89.5,29.5C 94.5,29.5 99.5,29.5 104.5,29.5C 104.5,24.5 104.5,19.5 104.5,14.5C 109.5,14.5 114.5,14.5 119.5,14.5C 119.173,19.544 119.506,24.544 120.5,29.5C 125.01,27.5512 129.677,26.2179 134.5,25.5C 134.5,21.8333 134.5,18.1667 134.5,14.5C 139.5,14.5 144.5,14.5 149.5,14.5C 149.5,9.5 149.5,4.5 149.5,-0.5 Z"/></g>
<g><path style="opacity:1" fill="#4ca2f0" d="M 170.5,52.5 C 171.833,52.5 173.167,52.5 174.5,52.5C 168.828,77.2653 170.994,101.265 181,124.5C 197.216,155.824 211.882,187.824 225,220.5C 227.049,226.862 228.549,233.362 229.5,240C 229.151,244.596 228.317,249.096 227,253.5C 216.162,273.621 201.662,290.787 183.5,305C 181.655,306.128 179.655,306.628 177.5,306.5C 180.639,293.94 183.472,281.274 186,268.5C 186.788,261.444 186.455,254.444 185,247.5C 170.35,215.531 155.683,183.531 141,151.5C 135.055,138.218 131.222,124.385 129.5,110C 129.955,100.244 133.122,91.4109 139,83.5C 148.067,71.5984 158.567,61.265 170.5,52.5 Z"/></g>
<g><path style="opacity:1" fill="#1c5099" d="M 91.5,78.5 C 92.8001,80.223 93.4668,82.3897 93.5,85C 90.7005,102.077 92.5338,118.577 99,134.5C 112.886,161.499 125.22,189.166 136,217.5C 138.319,224.994 137.985,232.328 135,239.5C 125.82,255.502 113.653,268.835 98.5,279.5C 97.2801,279.113 96.6135,278.28 96.5,277C 102.082,263.01 104.248,248.51 103,233.5C 90.3333,205.5 77.6667,177.5 65,149.5C 62.531,141.568 60.3643,133.568 58.5,125.5C 59.6703,114.826 63.8369,105.493 71,97.5C 77.4287,90.5653 84.262,84.232 91.5,78.5 Z"/></g>
<g><path style="opacity:1" fill="#1b5098" d="M 253.5,79.5 C 254.5,79.5 255.5,79.5 256.5,79.5C 254.781,91.1079 254.281,102.775 255,114.5C 256,118.167 257,121.833 258,125.5C 269.667,150.833 281.333,176.167 293,201.5C 296.284,210.305 298.784,219.305 300.5,228.5C 300.308,233.575 298.808,238.242 296,242.5C 287.671,256.168 277.171,268.001 264.5,278C 262.975,279.009 261.308,279.509 259.5,279.5C 261.014,271.442 262.847,263.442 265,255.5C 267.901,243.981 266.568,232.981 261,222.5C 249.71,198.923 238.71,175.256 228,151.5C 224.882,142.362 222.715,133.029 221.5,123.5C 222.11,115.612 224.943,108.612 230,102.5C 237.066,93.9332 244.899,86.2665 253.5,79.5 Z"/></g>
</svg>
